<?xml version="1.0"?>
<svg width="256" height="257" xmlns="http://www.w3.org/2000/svg" xmlns:svg="http://www.w3.org/2000/svg" class="iconify iconify--logos" preserveAspectRatio="xMidYMid meet">

 <g class="layer">
  <title>Layer 1</title>
  <rect fill="#bfbfbf" height="256" id="svg_9" stroke="null" stroke-dasharray="null" stroke-linecap="null" stroke-linejoin="null" stroke-opacity="null" width="254" x="0.83" y="0.92"/>
  <path d="m147.83,190.92l-9.83,20.08l-28,22l13,17l79,-66l-54.17,6.92z" fill="#000000" id="svg_5" stroke="null" stroke-dasharray="null" stroke-linecap="null" stroke-linejoin="null" stroke-opacity="null"/>
  <path d="m160.83,55.92l-110.83,94.08l105,51l39,42l47,-46c0,0 -45.17,-37.08 -44.17,-37.08c1,0 -36,-104 -36,-104z" fill="#ff0000" id="svg_3" stroke="null" stroke-dasharray="null" stroke-linecap="null" stroke-linejoin="null" stroke-opacity="null"/>
  <path d="m179.83,160.92l-25.83,-77.92l-77,61l80,40l35,41l30,-30l-42.17,-34.08z" fill="#ffffff" id="svg_4" stroke="null" stroke-dasharray="null" stroke-linecap="null" stroke-linejoin="null" stroke-opacity="null"/>
  <path d="m53.83,112.92l14.17,-51.92l60,-6l-55,16l-19.17,41.92z" fill="#000000" id="svg_7" stroke="null" stroke-dasharray="null" stroke-linecap="null" stroke-linejoin="null" stroke-opacity="null"/>
  <path d="m22.75,126.87l21.23,-99.43l89.93,-11.49l-82.44,30.64l-28.73,80.27z" fill="#000000" id="svg_8" stroke="null" stroke-dasharray="null" stroke-linecap="null" stroke-linejoin="null" stroke-opacity="null"/>
 </g>
</svg>